<svg width="16" height="13" viewBox="0 0 16 13" fill="none" xmlns="http://www.w3.org/2000/svg">
<path d="M13.3335 12.3333C13.6871 12.3333 14.0263 12.1929 14.2763 11.9428C14.5264 11.6928 14.6668 11.3536 14.6668 11V4.33333C14.6668 3.97971 14.5264 3.64057 14.2763 3.39052C14.0263 3.14048 13.6871 3 13.3335 3H8.06683C7.84384 3.00219 7.62386 2.94841 7.42703 2.84359C7.2302 2.73877 7.0628 2.58625 6.94016 2.4L6.40016 1.6C6.27876 1.41565 6.11348 1.26432 5.91916 1.1596C5.72485 1.05488 5.50757 1.00004 5.28683 1H2.66683C2.31321 1 1.97407 1.14048 1.72402 1.39052C1.47397 1.64057 1.3335 1.97971 1.3335 2.33333V11C1.3335 11.3536 1.47397 11.6928 1.72402 11.9428C1.97407 12.1929 2.31321 12.3333 2.66683 12.3333H13.3335Z" stroke="#A6A6A6" stroke-linecap="round" stroke-linejoin="round"/>
</svg>
