<svg width="16" height="16" viewBox="0 0 16 16" fill="none" xmlns="http://www.w3.org/2000/svg">
    <path d="M13.333 13.3333C13.6866 13.3333 14.0258 13.1929 14.2758 12.9428C14.5259 12.6928 14.6663 12.3536 14.6663 12V5.33333C14.6663 4.97971 14.5259 4.64057 14.2758 4.39052C14.0258 4.14048 13.6866 4 13.333 4H8.06634C7.84335 4.00219 7.62337 3.94841 7.42654 3.84359C7.22971 3.73877 7.06231 3.58625 6.93967 3.4L6.39967 2.6C6.27827 2.41565 6.11299 2.26432 5.91867 2.1596C5.72436 2.05488 5.50708 2.00004 5.28634 2H2.66634C2.31272 2 1.97358 2.14048 1.72353 2.39052C1.47348 2.64057 1.33301 2.97971 1.33301 3.33333V12C1.33301 12.3536 1.47348 12.6928 1.72353 12.9428C1.97358 13.1929 2.31272 13.3333 2.66634 13.3333H13.333Z" stroke="#A6A6A6" stroke-linecap="round" stroke-linejoin="round"/>
</svg>
