<svg width="16" height="16" viewBox="0 0 16 16" fill="none" xmlns="http://www.w3.org/2000/svg">
    <path d="M10.0003 1.33398H4.00033C3.6467 1.33398 3.30756 1.47446 3.05752 1.72451C2.80747 1.97456 2.66699 2.3137 2.66699 2.66732V13.334C2.66699 13.6876 2.80747 14.0267 3.05752 14.2768C3.30756 14.5268 3.6467 14.6673 4.00033 14.6673H12.0003C12.3539 14.6673 12.6931 14.5268 12.9431 14.2768C13.1932 14.0267 13.3337 13.6876 13.3337 13.334V4.66732L10.0003 1.33398Z" stroke="#A6A6A6" stroke-linecap="round" stroke-linejoin="round"/>
    <path d="M9.33301 1.33398V4.00065C9.33301 4.35427 9.47348 4.69341 9.72353 4.94346C9.97358 5.19351 10.3127 5.33398 10.6663 5.33398H13.333" stroke="#A6A6A6" stroke-linecap="round" stroke-linejoin="round"/>
    <path d="M6.66634 6H5.33301" stroke="#A6A6A6" stroke-linecap="round" stroke-linejoin="round"/>
    <path d="M10.6663 8.66602H5.33301" stroke="#A6A6A6" stroke-linecap="round" stroke-linejoin="round"/>
    <path d="M10.6663 11.334H5.33301" stroke="#A6A6A6" stroke-linecap="round" stroke-linejoin="round"/>
</svg>
