<svg width="16" height="16" viewBox="0 0 16 16" fill="none" xmlns="http://www.w3.org/2000/svg">
<path d="M10.0002 14.6663V11.9997C10.0929 11.1645 9.85347 10.3264 9.33352 9.66634C11.3335 9.66634 13.3335 8.33301 13.3335 5.99967C13.3869 5.16634 13.1535 4.34634 12.6669 3.66634C12.8535 2.89967 12.8535 2.09967 12.6669 1.33301C12.6669 1.33301 12.0002 1.33301 10.6669 2.33301C8.90685 1.99967 7.09352 1.99967 5.33352 2.33301C4.00019 1.33301 3.33352 1.33301 3.33352 1.33301C3.13352 2.09967 3.13352 2.89967 3.33352 3.66634C2.8481 4.3436 2.6125 5.1682 2.66685 5.99967C2.66685 8.33301 4.66685 9.66634 6.66685 9.66634C6.40685 9.99301 6.21352 10.3663 6.10019 10.7663C5.98685 11.1663 5.95352 11.5863 6.00019 11.9997V14.6663" stroke="#A6A6A6" stroke-width="1.33333" stroke-linecap="round" stroke-linejoin="round"/>
<path d="M6.00016 12.0003C2.9935 13.3337 2.66683 10.667 1.3335 10.667" stroke="#A6A6A6" stroke-width="1.33333" stroke-linecap="round" stroke-linejoin="round"/>
</svg>
