<svg width="44" height="41" viewBox="0 0 44 41" fill="none" xmlns="http://www.w3.org/2000/svg">
<mask id="mask0_952_2484" style="mask-type:alpha" maskUnits="userSpaceOnUse" x="1" y="3" width="41" height="35">
<path d="M10.127 4.12514C10.1818 -3.82918 -3.00024 33.2621 2.2254 25.7005C3.68511 23.5882 7.50941 13.8111 10.7264 17.3792C11.5123 19.3208 8.22408 24.7957 8.22408 24.7957C5.16623 31.2273 17.6124 20.1063 13.3515 14.8433C11.7796 11.9309 7.06392 14.8433 7.06392 14.8433C7.81111 12.3153 10.1077 6.92109 10.127 4.12514Z" fill="white"/>
<path d="M33.3704 5.44158C34.3385 -2.42264 20.2432 34.5786 25.4688 27.0169C28.837 19.6911 32.3297 13.8954 33.3704 5.44158Z" fill="white"/>
<path d="M17.5546 36.7084C17.4997 44.6627 30.6818 7.5714 25.4562 15.133C23.9964 17.2453 20.1721 27.0225 16.9552 23.4544C16.1692 21.5128 19.4575 16.0378 19.4575 16.0378C22.5153 9.60626 10.0692 20.7272 14.3301 25.9903C15.902 28.9026 20.6176 25.9903 20.6176 25.9903C19.8705 28.5182 17.5739 33.9124 17.5546 36.7084Z" fill="white"/>
<path d="M39.6107 12.9807C38.3313 12.0342 36.7171 11.9251 35.1232 12.6773C33.5293 13.4296 32.0863 14.9815 31.1116 16.9918C30.1369 19.002 29.7103 21.3059 29.9258 23.3966C30.1412 25.4873 30.981 27.1936 32.2604 28.1401C32.8939 28.6087 33.6163 28.8767 34.3863 28.9288C35.1562 28.9808 35.9587 28.8159 36.748 28.4435C37.5372 28.071 38.2977 27.4983 38.986 26.758C39.6743 26.0177 40.277 25.1244 40.7596 24.129C41.2422 23.1336 41.5954 22.0557 41.7988 20.9567C42.0023 19.8578 42.0521 18.7593 41.9454 17.7241C41.8387 16.6889 41.5776 15.7372 41.177 14.9233C40.7764 14.1094 40.2442 13.4493 39.6107 12.9807ZM38.2595 15.7673C38.6601 16.0636 38.9967 16.481 39.25 16.9957C39.5033 17.5104 39.6685 18.1122 39.7359 18.7668C39.8034 19.4215 39.7719 20.1161 39.6432 20.811C39.5146 21.5059 39.2913 22.1876 38.9861 22.817C38.6809 23.4464 38.2998 24.0113 37.8645 24.4794C37.4292 24.9476 36.9484 25.3097 36.4493 25.5452C35.9502 25.7808 35.4428 25.885 34.9559 25.8521C34.469 25.8192 34.0122 25.6497 33.6116 25.3534C32.8026 24.7549 32.2715 23.6759 32.1353 22.3539C31.9991 21.0318 32.2688 19.5749 32.8851 18.3038C33.5015 17.0326 34.4139 16.0512 35.4219 15.5755C36.4298 15.0998 37.4505 15.1688 38.2595 15.7673Z" fill="white"/>
</mask>
<g mask="url(#mask0_952_2484)">
<path d="M0 -3.99986L42.9999 -4V42.0001H16.9999L0 42.0001V-3.99986Z" fill="url(#paint0_linear_952_2484)"/>
</g>
<defs>
<linearGradient id="paint0_linear_952_2484" x1="20.5391" y1="-4.17676" x2="20.5391" y2="28.4951" gradientUnits="userSpaceOnUse">
<stop stop-color="#D9D9D9"/>
<stop offset="1" stop-color="#353535"/>
</linearGradient>
</defs>
</svg>
