<svg width="41" height="27" viewBox="0 0 41 28" fill="none" xmlns="http://www.w3.org/2000/svg">
<mask id="mask0_428_2644" style="mask-type:alpha" maskUnits="userSpaceOnUse" x="0" y="0" width="41" height="36">
<path d="M9.12696 1.7394C9.18184 -6.21493 -4.00024 30.8764 1.2254 23.3147C2.68511 21.2025 6.50941 11.4253 9.72636 14.9934C10.5123 16.935 7.22408 22.41 7.22408 22.41C4.16623 28.8415 16.6124 17.7206 12.3515 12.4575C10.7796 9.54514 6.06392 12.4575 6.06392 12.4575C6.81111 9.92956 9.10767 4.53535 9.12696 1.7394Z" fill="white"/>
<path d="M32.3704 3.05584C33.3385 -4.80838 19.2432 32.1928 24.4688 24.6312C27.837 17.3054 31.3297 11.5097 32.3704 3.05584Z" fill="white"/>
<path d="M16.5546 34.3226C16.4997 42.277 29.6818 5.18566 24.4562 12.7473C22.9964 14.8595 19.1721 24.6367 15.9552 21.0686C15.1692 19.127 18.4575 13.6521 18.4575 13.6521C21.5153 7.22051 9.0692 18.3415 13.3301 23.6045C14.902 26.5169 19.6176 23.6045 19.6176 23.6045C18.8705 26.1325 16.5739 31.5267 16.5546 34.3226Z" fill="white"/>
<path d="M38.6107 10.5949C37.3313 9.64848 35.7171 9.53937 34.1232 10.2916C32.5293 11.0438 31.0863 12.5958 30.1116 14.606C29.1369 16.6163 28.7103 18.9202 28.9258 21.0109C29.1412 23.1016 29.981 24.8079 31.2604 25.7543C31.8939 26.223 32.6163 26.491 33.3863 26.543C34.1562 26.5951 34.9587 26.4302 35.748 26.0577C36.5372 25.6853 37.2977 25.1125 37.986 24.3723C38.6743 23.632 39.277 22.7387 39.7596 21.7433C40.2422 20.7479 40.5954 19.6699 40.7988 18.571C41.0023 17.472 41.0521 16.3736 40.9454 15.3384C40.8387 14.3031 40.5776 13.3514 40.177 12.5375C39.7764 11.7237 39.2442 11.0636 38.6107 10.5949ZM37.2595 13.3815C37.6601 13.6779 37.9967 14.0953 38.25 14.61C38.5033 15.1246 38.6685 15.7265 38.7359 16.3811C38.8034 17.0357 38.7719 17.7303 38.6432 18.4253C38.5146 19.1202 38.2913 19.8018 37.9861 20.4313C37.6809 21.0607 37.2998 21.6256 36.8645 22.0937C36.4292 22.5618 35.9484 22.924 35.4493 23.1595C34.9502 23.395 34.4428 23.4993 33.9559 23.4664C33.469 23.4335 33.0122 23.264 32.6116 22.9676C31.8026 22.3691 31.2715 21.2902 31.1353 19.9681C30.9991 18.6461 31.2688 17.1892 31.8851 15.918C32.5015 14.6468 33.4139 13.6654 34.4219 13.1898C35.4298 12.7141 36.4505 12.7831 37.2595 13.3815Z" fill="white"/>
</mask>
<g mask="url(#mask0_428_2644)">
<rect x="-3.20312" y="-6.5625" width="45.4844" height="32.6719" fill="url(#paint0_linear_428_2644)"/>
</g>
<defs>
<linearGradient id="paint0_linear_428_2644" x1="19.5391" y1="-6.5625" x2="19.5391" y2="26.1094" gradientUnits="userSpaceOnUse">
<stop stop-color="#D9D9D9"/>
<stop offset="1" stop-color="#353535"/>
</linearGradient>
</defs>
</svg>
